<?xml version="1.0" encoding="UTF-8"?>
<svg id="Layer_1" xmlns="http://www.w3.org/2000/svg" version="1.1" viewBox="0 0 2000 2000">
  <!-- Generator: Adobe Illustrator 29.6.1, SVG Export Plug-In . SVG Version: 2.1.1 Build 9)  -->
  <defs>
    <style>
      .st0 {
        fill: #231f20;
      }
    </style>
  </defs>
  <path class="st0" d="M574.7,942.2c0-68.1-58.6-88.3-111.8-98.2l-42.8-7.7c-26.6-5-45.5-17.6-45.5-40.6s32.9-40.6,63.1-40.6,64,12.6,69,50.9h62.2c-3.6-62.6-60.8-102.3-128.4-102.3s-130.2,28.8-130.2,94.6,45.1,83.8,97.8,94.6l41.5,7.7c34.7,5.9,60.4,17.1,60.4,44.6s-36.5,45.5-65.3,45.5-72.1-14-79.3-62.2h-62.2c5.9,70.3,59,113.6,139.2,113.6s132.5-32.9,132.5-100Z"/>
  <path class="st0" d="M671.2,921.4h49.1c75.7,0,142-20.3,142-103.7s-77.1-108.2-143.8-108.2h-111.8v326.7h64.5v-114.9ZM671.2,760.1h48.7c34.7,0,76.2,4.5,76.2,58.1s-32,53.2-71.7,53.2h-53.2v-111.3Z"/>
  <path class="st0" d="M889.7,1036.4l23-66.2h127.1l23,66.2h69.8l-122.1-326.7h-64.9l-121.7,326.7h65.8ZM976.3,788.5l45.1,128.9h-90.1l45.1-128.9Z"/>
  <path class="st0" d="M1237.5,793.2c-13.1,0-21.4-6.4-24.4-19.6h-16.4c2.1,21,17.3,33.2,40,33.2s37.8-9.7,37.8-29-15.9-25.3-32.6-28.5l-11.7-2.2c-8.3-1.6-14.2-5.3-14.2-12.6s10.9-12.6,18.2-12.6,19.3,3.3,22,14.7h16.1c-3.8-19.8-18.4-28.4-37.3-28.4s-36,9.1-36,26.8,12.3,23.8,27.4,26.9l11.5,2.2c9.1,1.7,19.6,4.9,19.6,14.7s-9.1,14.3-20.4,14.3Z"/>
  <path class="st0" d="M1313.9,806.9c18.1,0,28.9-11.6,32-22.8h-15.4c-2.8,6.7-9.1,9.8-17.3,9.8s-18.1-6.4-19.2-19.6h52.6c1.4-23.6-12.2-41.3-33.9-41.3s-34.6,15.1-34.6,36.4,13,37.5,35.7,37.5ZM1312.8,745.2c9.2,0,17.6,6.7,18,17.7h-36.7c1.4-13.3,11.4-17.7,18.8-17.7Z"/>
  <path class="st0" d="M1370.3,768.1c0-14.2,5.6-18.1,15.5-18.1s4.9.1,7.5.4v-15.8c-1.2-.1-2.9-.3-4.1-.3-8.5.1-15.4,4.9-19.2,12.7v-12.6h-15.4v70.6h15.6v-37Z"/>
  <polygon class="st0" points="1435.2 805.2 1460.6 734.5 1444.3 734.5 1428.2 785 1411.9 734.5 1394.7 734.5 1420.5 805.2 1435.2 805.2"/>
  <rect class="st0" x="1467.2" y="734.5" width="15.6" height="70.6"/>
  <rect class="st0" x="1467.2" y="710" width="15.6" height="15.8"/>
  <path class="st0" d="M1524.7,806.9c15.1,0,29.7-9.3,32.8-25.9h-15.2c-2.1,9.4-9.6,12.9-17.3,12.9s-18.1-7.2-18.1-24,8.7-23.9,18.5-23.9,15,5.3,16.4,12.7h15.2c-2.7-15.6-16.1-25.7-31.6-25.7s-34.6,16-34.6,37,13.5,36.9,34,36.9Z"/>
  <path class="st0" d="M1598.6,806.9c18.1,0,28.9-11.6,32-22.8h-15.4c-2.8,6.7-9.1,9.8-17.3,9.8s-18.1-6.4-19.2-19.6h52.6c1.5-23.6-12.2-41.3-33.8-41.3s-34.7,15.1-34.7,36.4,13,37.5,35.7,37.5ZM1597.5,745.2c9.2,0,17.6,6.7,18,17.7h-36.8c1.5-13.3,11.4-17.7,18.8-17.7Z"/>
  <path class="st0" d="M1213.3,887.8h15c22.4,0,40.2-5.3,40.2-29.3s-19.6-29.9-40.4-29.9h-31.4v95.2h16.7v-36ZM1213.3,842h14.7c11.7,0,23.1,1.3,23.1,16.7s-9.7,15.5-22.3,15.5h-15.5v-32.2Z"/>
  <rect class="st0" x="1276.5" y="828.6" width="15.6" height="95.2"/>
  <path class="st0" d="M1332.5,912.8c-11.7,0-13-9.3-13-18.9v-40.7h-15.6v44.5c0,16.8,6.8,27.8,23.6,27.8s16.8-4.1,20.9-11.4v9.7h15.6v-70.6h-15.6v37.7c0,12.7-4.2,21.9-15.9,21.9Z"/>
  <path class="st0" d="M1433.1,902.7c0-13.8-10.9-18.2-25.2-21l-10-2c-6.2-1.2-9.5-3.7-9.5-8.4s6.3-7.7,13.1-7.7,13.8,2.5,15.5,8.9h14.7c-2.9-14.2-15.5-20.9-29.3-20.9s-28.7,8-28.7,20.5,9.3,18.1,21.3,20.6l10.6,2.1c7,1.4,12.2,3.9,12.2,9.7s-5.9,9.2-14.2,9.2-14.4-4.1-15.9-11.4h-15.2c1.7,13.3,13.3,23.2,30.6,23.2s29.9-8.1,29.9-22.8Z"/>
  <path class="st0" d="M1221.1,1015.6h38.6l7.5,21.1h18.2l-35.7-95.2h-17.6l-35.4,95.2h17.1l7.4-21.1ZM1240.2,960.9l14.4,40.8h-28.7l14.3-40.8Z"/>
  <path class="st0" d="M1350.8,1059.7v-93.6h-15.6v9.5c-4.2-7-11.6-11-21-11-17.3,0-30.3,14.3-30.3,36.9s13,37,30.3,37,16.8-4.1,21-11v32.3h15.6ZM1317.6,1025.7c-11,0-17.5-9.2-17.5-24.3s6.4-24.2,17.5-24.2,18.2,7.9,18.2,24.2-8.1,24.3-18.2,24.3Z"/>
  <path class="st0" d="M1420.1,1036.8v-70.6h-15.6v37.7c0,12.7-4.2,21.9-15.9,21.9s-13-9.3-13-18.9v-40.7h-15.6v44.5c0,16.8,6.8,27.8,23.6,27.8s16.8-4.1,20.9-11.4v9.7h15.6Z"/>
  <path class="st0" d="M1431.9,988.3h15.4c.4-8.5,6.3-12.7,14.2-12.7s14.7,3.7,14.7,15.8v1.3c-25.7,2.8-47.5,7-47.5,24.7s10.8,21.1,26.1,21.1,18.6-3.5,23.2-11.3c.4,4.9.8,6.6,1.3,9.6h14.3c-1.4-5.9-2.1-15.2-2.1-24.2s.3-14.8.3-18.2c.4-22.6-12.9-30.3-29.8-30.3s-29,10-30.1,24.3ZM1476.5,1008.9c0,12.1-6.8,17.9-18.4,17.9s-13-3.7-13-9.8,9.1-11.3,31.4-13.4v5.4Z"/>
  <path class="st0" d="M1520.5,947.5h-15.6v18.6h-10.5v11.3h10.5v40.8c0,14.4,3,18.5,18.1,18.5h11.5v-11.9h-5.6c-6.7,0-8.4-1.7-8.4-8.9v-38.5h14.2v-11.3h-14.2v-18.6Z"/>
  <rect class="st0" x="1542.4" y="966.1" width="15.6" height="70.6"/>
  <rect class="st0" x="1542.4" y="941.6" width="15.6" height="15.8"/>
  <path class="st0" d="M1600.1,1025.5c-9.2,0-18.1-7.2-18.1-24s8.7-23.9,18.5-23.9,15,5.3,16.4,12.7h15.2c-2.8-15.6-16.2-25.7-31.6-25.7s-34.6,16-34.6,37,13.5,36.9,34,36.9,29.7-9.3,32.8-25.9h-15.2c-2.1,9.4-9.6,12.9-17.3,12.9Z"/>
  <path class="st0" d="M1671.8,994.6l-10-2c-6.2-1.2-9.5-3.7-9.5-8.4s6.3-7.7,13.1-7.7,13.8,2.5,15.5,8.9h14.7c-2.9-14.2-15.5-20.9-29.3-20.9s-28.7,8-28.7,20.5,9.3,18.1,21.3,20.6l10.6,2.1c7,1.4,12.2,3.9,12.2,9.7s-5.9,9.2-14.2,9.2-14.4-4.1-15.9-11.4h-15.2c1.7,13.3,13.3,23.2,30.6,23.2s29.9-8.1,29.9-22.8-10.9-18.2-25.2-21Z"/>
  <path class="st0" d="M1461.6,1167.5c21.1-7,28.7-14.9,28.7-14.9-98.3,18.6-205.8,12.8-296.9-4.2,0,0,25.1,12.7,72.5,23.1,64.1,14.1,134.1,16.4,195.6-4.1Z"/>
  <path class="st0" d="M1430.7,1212c-19.4,4.5-40.4,6.5-60.4,6.8-61.3.8-122-12.7-181.2-27.5-39-10.4-80.9-22.7-119.3-35.1-14.6-4.6-31.8-10-46.7-13.6-170.7-43.2-364.6-7.6-515.4,80.7-3,1.9-1.1.8-8.1,6.2,0,0,3.2-1.2,9.5-3.4,39.9-13.6,80.4-24.4,121.1-33.2,120-25.7,245.7-33.5,365.5-5.2,39.1,9.4,81.3,24.9,120.3,34.5,65,17.4,132,29.6,199.6,29.7,65.1-1,124.1-15.4,176-56.3l8.8-7.4s-5.8,2.9-10.3,4.7c-19.6,8.1-39.4,14.7-59.4,19Z"/>
  <path class="st0" d="M1142.3,1279.4c-15.8-3.3-37.2-9.1-52.7-13.5-47.1-14.2-94.1-29-142.4-39.1-60.6-13.7-123.9-15-185.6-10.7-35.8,2.8-72.4,7.1-107.5,14.6h0s-.4,0-1.1.2c-.4,0-.9.2-1.3.3,0,0,0,0,0,0-3,.7-8.3,2.1-12.5,3.8,0,0,7.5-.7,12.9-.8,49.1-.6,98-1,146.6.8,36.3,1.4,72.3,3.6,108.1,9.3,47.1,7.6,95.7,20,142.2,31.6,36.1,8.8,72.4,17.5,109.8,19.7,22.5,1.3,45,.4,67.1-3.1h0s1.8-.2,5.7-1c.5,0,1-.2,1.5-.2h0c3.8-.8,9.1-2,16.1-3.8,0,0-6.5.5-16.4.7-30.4.3-60.8-2.7-90.3-8.8Z"/>
</svg>